<svg width="377" height="185" viewBox="0 0 377 185" fill="none" xmlns="http://www.w3.org/2000/svg">
<path d="M0 167.836C0 164.944 0.718484 162.564 2.15545 160.696C3.59242 158.81 5.78379 157.867 8.72957 157.867C10.7054 157.867 12.2232 158.218 13.283 158.918C14.3248 159.619 15.0792 160.337 15.5462 161.074C15.8156 161.487 15.7617 161.81 15.3845 162.044L14.226 162.825C13.8667 163.076 13.4985 162.906 13.1213 162.313C12.7621 161.756 12.2591 161.271 11.6125 160.858C10.9658 160.445 10.0049 160.238 8.72957 160.238C7.04113 160.238 5.73888 160.867 4.82282 162.124C3.88879 163.364 3.42178 165.268 3.42178 167.836C3.42178 170.423 3.88879 172.336 4.82282 173.575C5.73888 174.815 7.04113 175.434 8.72957 175.434C10.0947 175.434 11.1365 175.174 11.855 174.653C12.5735 174.132 13.1033 173.557 13.4446 172.929C13.75 172.354 14.1092 172.192 14.5223 172.444L15.7617 173.171C16.121 173.405 16.1749 173.737 15.9234 174.168C15.618 174.707 14.9175 175.452 13.8218 176.404C12.7441 177.356 11.0467 177.832 8.72957 177.832C5.78379 177.832 3.59242 176.889 2.15545 175.003C0.718484 173.117 0 170.728 0 167.836ZM18.9141 167.836C18.9141 164.801 19.6685 162.376 21.1773 160.562C22.7041 158.765 24.8865 157.867 27.7245 157.867C30.0775 157.867 32.0354 158.694 33.5981 160.346C35.1428 161.999 35.9152 164.63 35.9152 168.24C35.9152 168.797 35.6637 169.076 35.1608 169.076H22.3358C22.5334 171.447 23.1711 173.09 24.2488 174.006C25.3086 174.94 26.521 175.407 27.8861 175.407C29.3051 175.407 30.3918 175.165 31.1462 174.68C31.9186 174.213 32.4754 173.746 32.8167 173.279C33.2119 172.758 33.5981 172.659 33.9753 172.982L35.053 173.925C35.3404 174.159 35.3404 174.491 35.053 174.922C34.8195 175.282 34.1549 175.856 33.0592 176.647C31.9635 177.437 30.2392 177.832 27.8861 177.832C24.8146 177.832 22.5514 176.925 21.0965 175.111C19.6415 173.315 18.9141 170.89 18.9141 167.836ZM22.255 166.678H32.6551C32.6191 164.953 32.1791 163.445 31.3348 162.151C30.5086 160.858 29.2782 160.211 27.6436 160.211C26.2246 160.211 25.0212 160.687 24.0333 161.639C23.0274 162.591 22.4346 164.271 22.255 166.678ZM39.1214 167.836C39.1214 165.196 39.7591 162.87 41.0344 160.858C42.3097 158.864 44.1777 157.867 46.6385 157.867C48.0575 157.867 49.1891 158.101 50.0334 158.568C50.8776 159.035 51.641 159.673 52.3235 160.481H52.3505C52.3325 160.104 52.3235 159.726 52.3235 159.349V151.159C52.3235 150.602 52.593 150.323 53.1318 150.323H54.7215C55.2783 150.323 55.5567 150.602 55.5567 151.159V176.674C55.5567 177.231 55.2783 177.509 54.7215 177.509H53.1857C52.7367 177.509 52.4942 177.231 52.4582 176.674L52.3505 175.219H52.3235C51.641 176.027 50.8776 176.665 50.0334 177.132C49.1891 177.599 48.0575 177.832 46.6385 177.832C44.1777 177.832 42.3097 176.826 41.0344 174.815C39.7591 172.803 39.1214 170.477 39.1214 167.836ZM42.5432 167.836C42.5432 170.1 42.9383 171.932 43.7287 173.333C44.501 174.734 45.8213 175.434 47.6893 175.434C49.0185 175.434 50.1232 174.985 51.0033 174.087C51.8835 173.171 52.3235 171.797 52.3235 169.965V165.735C52.3235 163.885 51.8835 162.511 51.0033 161.612C50.1232 160.696 49.0185 160.238 47.6893 160.238C45.8213 160.238 44.501 160.939 43.7287 162.34C42.9383 163.741 42.5432 165.573 42.5432 167.836ZM59.7329 172.363C59.7329 170.171 60.7567 168.564 62.8044 167.54C64.8521 166.516 67.9056 165.923 71.9651 165.762V164.495C71.9651 163.346 71.7046 162.349 71.1837 161.505C70.6628 160.66 69.63 160.238 68.0853 160.238C67.0973 160.238 66.307 160.337 65.7143 160.535C65.1395 160.732 64.6096 160.984 64.1246 161.289C63.6396 161.612 63.1726 162.017 62.7236 162.502C62.3823 162.861 62.068 162.879 61.7806 162.555L60.8376 161.451C60.5681 161.145 60.6579 160.777 61.107 160.346C61.7536 159.735 62.3823 159.277 62.993 158.972C63.6037 158.667 64.3671 158.406 65.2832 158.191C66.1992 157.975 67.1333 157.867 68.0853 157.867C70.6538 157.867 72.486 158.523 73.5816 159.834C74.6594 161.163 75.1982 162.969 75.1982 165.25V176.674C75.1982 177.231 74.9288 177.509 74.3899 177.509H72.7195C72.2345 177.509 71.992 177.231 71.992 176.674V175.785H71.9651C70.9951 176.539 70.0521 177.069 69.136 177.374C68.202 177.68 67.1602 177.832 66.0106 177.832C63.9989 177.832 62.4541 177.347 61.3764 176.377C60.2807 175.407 59.7329 174.069 59.7329 172.363ZM63.1008 172.417C63.1008 173.189 63.2535 173.8 63.5588 174.249C63.8821 174.716 64.3312 175.012 64.906 175.138C65.4628 175.264 66.0466 175.327 66.6573 175.327C67.6093 175.327 68.5074 175.237 69.3516 175.057C70.1958 174.877 71.067 174.393 71.9651 173.602V168.16C69.4863 168.357 67.717 168.582 66.6573 168.833C65.5975 169.103 64.7443 169.561 64.0977 170.207C63.4331 170.854 63.1008 171.59 63.1008 172.417ZM82.8501 177.509H81.2604C80.7216 177.509 80.4521 177.231 80.4521 176.674V158.999C80.4521 158.442 80.7216 158.164 81.2604 158.164H82.8231C83.38 158.164 83.6584 158.442 83.6584 158.999V161.208H83.7123C84.305 160.113 84.9966 159.277 85.7869 158.703C86.5952 158.146 87.5921 157.867 88.7776 157.867C89.5679 157.867 90.1247 157.93 90.448 158.056C90.7175 158.164 90.8163 158.352 90.7444 158.622L90.3403 160.131C90.2684 160.346 90.1068 160.427 89.8553 160.373C89.4242 160.283 89.0201 160.238 88.6429 160.238C87.2059 160.238 86.0204 160.894 85.0864 162.205C84.1523 163.499 83.6853 165.259 83.6853 167.486V176.674C83.6853 177.231 83.4069 177.509 82.8501 177.509ZM108.715 177.509H107.126C106.569 177.509 106.291 177.231 106.291 176.674V153.691C106.291 153.44 106.353 153.206 106.479 152.991L107.772 150.647C108.006 150.216 108.195 150 108.338 150H108.985C109.362 150 109.551 150.216 109.551 150.647V176.674C109.551 177.231 109.272 177.509 108.715 177.509ZM113.727 167.836C113.727 164.801 114.49 162.376 116.017 160.562C117.526 158.765 119.699 157.867 122.537 157.867C124.908 157.867 126.866 158.694 128.411 160.346C129.956 161.999 130.728 164.63 130.728 168.24C130.728 168.797 130.477 169.076 129.974 169.076H117.149C117.364 171.447 118.002 173.09 119.062 174.006C120.139 174.94 121.352 175.407 122.699 175.407C124.118 175.407 125.205 175.165 125.959 174.68C126.731 174.213 127.297 173.746 127.656 173.279C128.034 172.758 128.411 172.659 128.788 172.982L129.866 173.925C130.153 174.159 130.153 174.491 129.866 174.922C129.632 175.282 128.968 175.856 127.872 176.647C126.776 177.437 125.052 177.832 122.699 177.832C119.627 177.832 117.364 176.925 115.909 175.111C114.454 173.315 113.727 170.89 113.727 167.836ZM117.068 166.678H127.468C127.432 164.953 126.992 163.445 126.148 162.151C125.321 160.858 124.1 160.211 122.483 160.211C121.046 160.211 119.834 160.687 118.846 161.639C117.84 162.591 117.247 164.271 117.068 166.678ZM133.934 172.363C133.934 170.171 134.958 168.564 137.006 167.54C139.053 166.516 142.107 165.923 146.166 165.762V164.495C146.166 163.346 145.906 162.349 145.385 161.505C144.864 160.66 143.831 160.238 142.287 160.238C141.299 160.238 140.517 160.337 139.943 160.535C139.35 160.732 138.811 160.984 138.326 161.289C137.841 161.612 137.374 162.017 136.925 162.502C136.602 162.861 136.287 162.879 135.982 162.555L135.039 161.451C134.769 161.145 134.859 160.777 135.308 160.346C135.955 159.735 136.584 159.277 137.194 158.972C137.823 158.667 138.595 158.406 139.511 158.191C140.41 157.975 141.335 157.867 142.287 157.867C144.855 157.867 146.687 158.523 147.783 159.834C148.879 161.163 149.427 162.969 149.427 165.25V176.674C149.427 177.231 149.148 177.509 148.591 177.509H146.921C146.454 177.509 146.22 177.231 146.22 176.674V175.785H146.166C145.196 176.539 144.253 177.069 143.337 177.374C142.403 177.68 141.371 177.832 140.239 177.832C138.209 177.832 136.655 177.347 135.578 176.377C134.482 175.407 133.934 174.069 133.934 172.363ZM137.302 172.417C137.302 173.189 137.464 173.8 137.787 174.249C138.092 174.716 138.533 175.012 139.107 175.138C139.664 175.264 140.248 175.327 140.859 175.327C141.811 175.327 142.709 175.237 143.553 175.057C144.397 174.877 145.268 174.393 146.166 173.602V168.16C143.688 168.357 141.918 168.582 140.859 168.833C139.817 169.103 138.964 169.561 138.299 170.207C137.634 170.854 137.302 171.59 137.302 172.417ZM155.65 160.589H153.684C153.127 160.589 152.848 160.382 152.848 159.969V158.81C152.848 158.379 153.127 158.164 153.684 158.164H155.65V155.416C155.65 153.368 156.207 151.958 157.321 151.185C158.417 150.395 159.683 150 161.12 150C161.964 150 162.647 150.045 163.168 150.135C163.688 150.225 164.308 150.413 165.027 150.701C165.296 150.826 165.377 151.024 165.269 151.293L164.676 152.748C164.587 153 164.371 153.054 164.03 152.91C163.76 152.784 163.428 152.667 163.033 152.56C162.656 152.452 162.233 152.398 161.766 152.398C160.761 152.398 160.033 152.649 159.584 153.152C159.135 153.637 158.911 154.571 158.911 155.954V158.164H162.278C162.835 158.164 163.114 158.379 163.114 158.81V159.969C163.114 160.382 162.835 160.589 162.278 160.589H158.911V176.674C158.911 177.231 158.632 177.509 158.075 177.509H156.486C155.929 177.509 155.65 177.231 155.65 176.674V160.589ZM178.175 167.836C178.175 165.196 178.812 162.87 180.088 160.858C181.363 158.864 183.231 157.867 185.692 157.867C187.093 157.867 188.216 158.101 189.06 158.568C189.922 159.035 190.685 159.673 191.35 160.481H191.404C191.368 160.104 191.35 159.726 191.35 159.349V151.159C191.35 150.602 191.628 150.323 192.185 150.323H193.775C194.314 150.323 194.583 150.602 194.583 151.159V176.674C194.583 177.231 194.314 177.509 193.775 177.509H192.212C191.781 177.509 191.548 177.231 191.512 176.674L191.404 175.219H191.35C190.685 176.027 189.922 176.665 189.06 177.132C188.216 177.599 187.093 177.832 185.692 177.832C183.231 177.832 181.363 176.826 180.088 174.815C178.812 172.803 178.175 170.477 178.175 167.836ZM181.597 167.836C181.597 170.1 181.983 171.932 182.755 173.333C183.545 174.734 184.875 175.434 186.743 175.434C188.054 175.434 189.15 174.985 190.03 174.087C190.91 173.171 191.35 171.797 191.35 169.965V165.735C191.35 163.885 190.91 162.511 190.03 161.612C189.15 160.696 188.054 160.238 186.743 160.238C184.875 160.238 183.545 160.939 182.755 162.34C181.983 163.741 181.597 165.573 181.597 167.836ZM202.235 177.509H200.645C200.107 177.509 199.837 177.231 199.837 176.674V158.999C199.837 158.442 200.107 158.164 200.645 158.164H202.235C202.792 158.164 203.07 158.442 203.07 158.999V176.674C203.07 177.231 202.792 177.509 202.235 177.509ZM202.235 154.661H200.645C200.107 154.661 199.837 154.392 199.837 153.853V152.263C199.837 151.706 200.107 151.428 200.645 151.428H202.235C202.792 151.428 203.07 151.706 203.07 152.263V153.853C203.07 154.392 202.792 154.661 202.235 154.661ZM207.22 175.704C206.842 175.344 206.761 175.012 206.977 174.707L207.812 173.548C208.082 173.189 208.477 173.207 208.998 173.602C209.716 174.159 210.525 174.599 211.423 174.922C212.321 175.264 213.336 175.434 214.467 175.434C215.15 175.434 215.752 175.353 216.272 175.192C216.793 175.012 217.26 174.698 217.673 174.249C218.069 173.8 218.266 173.189 218.266 172.417C218.266 171.986 218.167 171.572 217.97 171.177C217.79 170.782 217.494 170.468 217.081 170.234C216.686 169.983 216.299 169.794 215.922 169.668C215.293 169.435 214.674 169.237 214.063 169.076C213.434 168.932 212.617 168.699 211.611 168.375C210.947 168.16 210.309 167.863 209.698 167.486C209.106 167.091 208.585 166.561 208.136 165.896C207.687 165.232 207.462 164.316 207.462 163.148C207.462 161.963 207.821 160.939 208.54 160.077C209.258 159.215 210.165 158.631 211.261 158.325C212.357 158.02 213.416 157.867 214.44 157.867C215.967 157.867 217.197 158.038 218.131 158.379C219.048 158.739 219.847 159.152 220.529 159.619C220.925 159.906 220.978 160.229 220.691 160.589L219.856 161.693C219.604 162.053 219.209 162.044 218.67 161.666C218.221 161.343 217.575 161.047 216.73 160.777C215.904 160.49 215.177 160.346 214.548 160.346C213.776 160.346 213.111 160.427 212.554 160.589C211.997 160.768 211.548 161.065 211.207 161.478C210.866 161.909 210.695 162.403 210.695 162.96C210.695 163.391 210.758 163.777 210.884 164.118C211.027 164.442 211.279 164.747 211.638 165.034C212.015 165.322 212.536 165.555 213.201 165.735C214.225 166.004 215.168 166.247 216.03 166.462C216.874 166.678 217.646 166.947 218.347 167.271C219.245 167.684 219.937 168.142 220.422 168.645C220.907 169.148 221.239 169.695 221.419 170.288C221.598 170.863 221.688 171.51 221.688 172.228C221.688 173.539 221.302 174.653 220.529 175.569C219.739 176.467 218.868 177.069 217.916 177.374C216.964 177.68 215.805 177.832 214.44 177.832C212.626 177.832 211.063 177.572 209.752 177.051C208.441 176.53 207.597 176.081 207.22 175.704ZM228.1 184.864H226.511C225.954 184.864 225.676 184.595 225.676 184.056V158.999C225.676 158.442 225.954 158.164 226.511 158.164H228.073C228.505 158.164 228.738 158.442 228.774 158.999L228.882 160.481H228.936C229.6 159.673 230.355 159.035 231.199 158.568C232.061 158.101 233.193 157.867 234.594 157.867C237.055 157.867 238.923 158.864 240.198 160.858C241.473 162.87 242.111 165.196 242.111 167.836C242.111 170.477 241.473 172.803 240.198 174.815C238.923 176.826 237.055 177.832 234.594 177.832C233.193 177.832 232.061 177.599 231.199 177.132C230.355 176.665 229.6 176.027 228.936 175.219H228.882C228.918 175.578 228.936 175.946 228.936 176.323V184.056C228.936 184.595 228.657 184.864 228.1 184.864ZM228.936 165.735V169.965C228.936 171.797 229.376 173.171 230.256 174.087C231.118 174.985 232.214 175.434 233.543 175.434C235.411 175.434 236.74 174.734 237.531 173.333C238.303 171.932 238.689 170.1 238.689 167.836C238.689 165.573 238.303 163.741 237.531 162.34C236.74 160.939 235.411 160.238 233.543 160.238C232.214 160.238 231.118 160.696 230.256 161.612C229.376 162.511 228.936 163.885 228.936 165.735ZM245.236 167.836C245.236 164.944 246 162.564 247.526 160.696C249.071 158.81 251.316 157.867 254.262 157.867C257.208 157.867 259.444 158.81 260.971 160.696C262.498 162.564 263.261 164.944 263.261 167.836C263.261 170.728 262.498 173.117 260.971 175.003C259.444 176.889 257.208 177.832 254.262 177.832C251.316 177.832 249.071 176.889 247.526 175.003C246 173.117 245.236 170.728 245.236 167.836ZM248.685 167.836C248.685 170.423 249.188 172.336 250.194 173.575C251.218 174.815 252.574 175.434 254.262 175.434C255.933 175.434 257.28 174.815 258.304 173.575C259.328 172.336 259.839 170.423 259.839 167.836C259.839 165.268 259.328 163.364 258.304 162.124C257.28 160.867 255.933 160.238 254.262 160.238C252.574 160.238 251.218 160.867 250.194 162.124C249.188 163.364 248.685 165.268 248.685 167.836ZM266.36 175.704C265.982 175.344 265.902 175.012 266.117 174.707L266.952 173.548C267.222 173.189 267.617 173.207 268.138 173.602C268.856 174.159 269.665 174.599 270.563 174.922C271.461 175.264 272.476 175.434 273.607 175.434C274.29 175.434 274.892 175.353 275.413 175.192C275.933 175.012 276.4 174.698 276.814 174.249C277.209 173.8 277.406 173.189 277.406 172.417C277.406 171.986 277.308 171.572 277.11 171.177C276.93 170.782 276.643 170.468 276.248 170.234C275.835 169.983 275.439 169.794 275.062 169.668C274.434 169.435 273.814 169.237 273.203 169.076C272.575 168.932 271.757 168.699 270.751 168.375C270.087 168.16 269.449 167.863 268.838 167.486C268.246 167.091 267.725 166.561 267.276 165.896C266.827 165.232 266.602 164.316 266.602 163.148C266.602 161.963 266.961 160.939 267.68 160.077C268.398 159.215 269.305 158.631 270.401 158.325C271.497 158.02 272.557 157.867 273.58 157.867C275.107 157.867 276.338 158.038 277.272 158.379C278.188 158.739 278.987 159.152 279.67 159.619C280.065 159.906 280.119 160.229 279.831 160.589L278.996 161.693C278.745 162.053 278.349 162.044 277.81 161.666C277.361 161.343 276.715 161.047 275.871 160.777C275.044 160.49 274.317 160.346 273.688 160.346C272.916 160.346 272.251 160.427 271.694 160.589C271.138 160.768 270.689 161.065 270.347 161.478C270.006 161.909 269.835 162.403 269.835 162.96C269.835 163.391 269.898 163.777 270.024 164.118C270.168 164.442 270.428 164.747 270.805 165.034C271.165 165.322 271.676 165.555 272.341 165.735C273.365 166.004 274.308 166.247 275.17 166.462C276.014 166.678 276.787 166.947 277.487 167.271C278.385 167.684 279.077 168.142 279.562 168.645C280.047 169.148 280.379 169.695 280.559 170.288C280.738 170.863 280.828 171.51 280.828 172.228C280.828 173.539 280.442 174.653 279.67 175.569C278.879 176.467 278.008 177.069 277.056 177.374C276.104 177.68 274.946 177.832 273.58 177.832C271.766 177.832 270.204 177.572 268.892 177.051C267.581 176.53 266.737 176.081 266.36 175.704ZM283.765 172.363C283.765 170.171 284.789 168.564 286.836 167.54C288.884 166.516 291.938 165.923 295.997 165.762V164.495C295.997 163.346 295.737 162.349 295.216 161.505C294.695 160.66 293.662 160.238 292.117 160.238C291.129 160.238 290.348 160.337 289.773 160.535C289.18 160.732 288.642 160.984 288.157 161.289C287.672 161.612 287.205 162.017 286.756 162.502C286.432 162.861 286.118 162.879 285.813 162.555L284.87 161.451C284.6 161.145 284.69 160.777 285.139 160.346C285.786 159.735 286.414 159.277 287.025 158.972C287.654 158.667 288.426 158.406 289.342 158.191C290.24 157.975 291.165 157.867 292.117 157.867C294.686 157.867 296.518 158.523 297.614 159.834C298.709 161.163 299.257 162.969 299.257 165.25V176.674C299.257 177.231 298.979 177.509 298.422 177.509H296.751C296.284 177.509 296.051 177.231 296.051 176.674V175.785H295.997C295.027 176.539 294.084 177.069 293.168 177.374C292.234 177.68 291.201 177.832 290.07 177.832C288.04 177.832 286.486 177.347 285.408 176.377C284.313 175.407 283.765 174.069 283.765 172.363ZM287.133 172.417C287.133 173.189 287.294 173.8 287.618 174.249C287.923 174.716 288.363 175.012 288.938 175.138C289.495 175.264 290.079 175.327 290.689 175.327C291.641 175.327 292.539 175.237 293.384 175.057C294.228 174.877 295.099 174.393 295.997 173.602V168.16C293.518 168.357 291.749 168.582 290.689 168.833C289.647 169.103 288.794 169.561 288.13 170.207C287.465 170.854 287.133 171.59 287.133 172.417ZM306.882 177.509H305.319C304.763 177.509 304.484 177.231 304.484 176.674V153.691C304.484 153.44 304.547 153.206 304.673 152.991L305.939 150.647C306.173 150.216 306.37 150 306.532 150H307.178C307.538 150 307.717 150.216 307.717 150.647V176.674C307.717 177.231 307.439 177.509 306.882 177.509ZM327.925 177.509H326.335C325.778 177.509 325.5 177.231 325.5 176.674V153.691C325.5 153.44 325.563 153.206 325.688 152.991L326.982 150.647C327.215 150.216 327.404 150 327.547 150H328.194C328.571 150 328.76 150.216 328.76 150.647V176.674C328.76 177.231 328.481 177.509 327.925 177.509ZM335.226 160.589H333.044C332.487 160.589 332.209 160.382 332.209 159.969V158.81C332.209 158.379 332.487 158.164 333.044 158.164H335.226V156.52C335.226 156.269 335.289 156.035 335.415 155.82L336.681 153.476C336.915 153.045 337.112 152.829 337.274 152.829H337.921C338.28 152.829 338.459 153.045 338.459 153.476V158.164H342.393C342.932 158.164 343.201 158.379 343.201 158.81V159.969C343.201 160.382 342.932 160.589 342.393 160.589H338.459V172.336C338.459 173.629 338.657 174.464 339.052 174.842C339.429 175.237 339.887 175.434 340.426 175.434C340.839 175.434 341.342 175.309 341.935 175.057C342.51 174.806 342.914 174.599 343.148 174.437C343.363 174.258 343.534 174.312 343.659 174.599L344.252 176.027C344.36 176.261 344.288 176.458 344.037 176.62C343.57 176.889 342.869 177.159 341.935 177.428C341.019 177.698 340.103 177.832 339.187 177.832C337.912 177.832 336.933 177.365 336.25 176.431C335.568 175.515 335.226 174.213 335.226 172.524V160.589ZM346.866 167.836C346.866 165.196 347.512 162.87 348.806 160.858C350.081 158.864 351.94 157.867 354.383 157.867C355.802 157.867 356.933 158.101 357.778 158.568C358.622 159.035 359.385 159.673 360.068 160.481H360.095C360.077 160.104 360.068 159.726 360.068 159.349V151.159C360.068 150.602 360.346 150.323 360.903 150.323H362.466C363.023 150.323 363.301 150.602 363.301 151.159V176.674C363.301 177.231 363.023 177.509 362.466 177.509H360.93C360.481 177.509 360.238 177.231 360.202 176.674L360.095 175.219H360.068C359.385 176.027 358.622 176.665 357.778 177.132C356.933 177.599 355.802 177.832 354.383 177.832C351.94 177.832 350.081 176.826 348.806 174.815C347.512 172.803 346.866 170.477 346.866 167.836ZM350.314 167.836C350.314 170.1 350.701 171.932 351.473 173.333C352.245 174.734 353.566 175.434 355.434 175.434C356.763 175.434 357.867 174.985 358.748 174.087C359.628 173.171 360.068 171.797 360.068 169.965V165.735C360.068 163.885 359.628 162.511 358.748 161.612C357.867 160.696 356.763 160.238 355.434 160.238C353.566 160.238 352.245 160.939 351.473 162.34C350.701 163.741 350.314 165.573 350.314 167.836Z" fill="white"/>
<path d="M160.788 124.271C139.255 117.89 77.1436 90.6222 147.533 0C185.596 25.8313 200.262 48.5594 202.978 67.3404C184.771 73.8607 172.237 86.5371 173.799 109.472C163.883 85.8886 156.103 53.2721 152.766 32.9359C151.092 56.6919 154.597 98.9458 160.788 124.271V124.271Z" fill="white"/>
<path d="M185.158 129.964C179.916 115.395 169.028 68.0308 250.385 70.6417C252.773 145.046 213.364 142.3 195.467 137.278C202.876 122.857 212.413 109.841 224.481 98.8523C209.677 107.049 196.492 117.446 185.158 129.964V129.964Z" fill="white"/>
</svg>
