<svg width="109" height="112" viewBox="0 0 109 112" fill="none" xmlns="http://www.w3.org/2000/svg">
<path d="M36.9399 99.4466C19.7854 94.3632 -29.6971 72.6398 26.3799 0.443848C56.7034 21.0228 68.3879 39.1296 70.5512 54.0919C56.0467 59.2864 46.0611 69.3853 47.3055 87.6565C39.4055 68.8686 33.2077 42.8841 30.5488 26.6829C29.2154 45.6085 32.0077 79.2709 36.9399 99.4466V99.4466Z" fill="#D8D961"/>
<path d="M56.3544 103.982C52.1789 92.3754 43.5044 54.6419 108.319 56.7219C110.221 115.998 78.8257 113.81 64.5678 109.809C70.4701 98.3199 78.0679 87.9509 87.6824 79.1964C75.8879 85.7265 65.3845 94.0098 56.3544 103.982V103.982Z" fill="#D8D961"/>
</svg>
