<svg version="1.2" xmlns="http://www.w3.org/2000/svg" viewBox="0 0 458 214" width="458" height="214"><defs><clipPath clipPathUnits="userSpaceOnUse" id="cp1"><path d="m-57-119h540v540h-540z"/></clipPath></defs><style>.a{fill:#fff}.b{fill:#fff;stroke:#000;stroke-width:5}.c{fill:none;stroke:#000;stroke-width:5}.d{fill:none;stroke:#000;stroke-linecap:square;stroke-width:3}</style><g clip-path="url(#cp1)"><path fill-rule="evenodd" class="a" d="m194.8 195.4q-3.6 8.4-12 8.4-6.3 0-10.3-4.1-4.2-4.2-4.2-11.4 0-7.2 4.2-11.7 4.3-4.6 11-4.6 3.6 0 7.4 2.1l0.8-1.8h1.9l0.2 11.7h-2q-1.5-5-3.4-7.3-1.9-2.4-4.7-2.4-3.8 0-5.8 3.5-2.1 3.4-2.1 9.7 0 6.5 2.4 9.9 2.2 3.1 6.2 3.1 2.8 0 5-1.6 1.8-1.4 3.6-4.5zm21.7-10.5q0 1.8-0.9 2.9-0.9 1.2-2.4 1.2-3.3 0-3.3-2.8 0-0.6 0.4-2.2-2.3 0-3.9 2.7v12.1q0 1.5 1.2 2.1 0.7 0.4 3.2 0.5v1.8h-13.7v-1.8q0.8 0 2.1-0.2 1.2-0.4 1.2-2v-13.2q0-1.5-1.2-2.3-0.7-0.5-2.3-0.6v-1.7l9-0.7 0.2 0.3v3.4h0.4q2.7-3.7 6.1-3.7 1.8 0 2.9 1.1 1 1.1 1 3.1zm25.3 11.9q-0.2 7-5.9 7-2 0-3.1-0.9-0.8-0.7-1.6-2.3h-0.1q-2.7 3.2-6.9 3.2-2.5 0-4.1-1.6-1.6-1.5-1.6-3.9 0-2.7 1.4-4.3 1-1.1 3.1-1.9 0.8-0.4 4.4-1.5 2.8-1 3.8-1.6v-2.1q0-1.5-0.7-2.7-0.8-1.5-2.6-1.5-1.5 0-2.5 0.8 0 0.1 0.4 1.2 0.2 0.7 0.2 1.5 0 1-0.7 1.7-0.8 1-2.5 1-3.3 0-3.3-3.2 0-2.1 2.9-3.7 2.7-1.5 5.9-1.5 4.3 0 6.2 1.2 2.6 1.7 2.6 6 0 2.5-0.1 6.4-0.2 3.9-0.2 4.4 0 2.1 1.7 2.1 1.4 0 1.4-3.8zm-10.6-5.8q-3.4 1.5-4.3 2.1-2 1.5-2 3.9 0 3.4 2.7 3.4 2.2 0 3.5-1.7zm37.6 12.1h-11.9v-1.8q1.3 0 1.6-0.2 1-0.4 1-2v-10.6q0-2.2-0.9-3.5-0.8-1.1-2.1-1.1-1.8 0-3.2 1.3-1.1 0.9-1.5 2v11.7q0 2.2 2.7 2.4v1.8h-12v-1.8q1.7 0 2.1-0.2 1.3-0.4 1.3-2v-13.1q0-1.5-1.3-2.4-0.7-0.5-2.3-0.5v-1.8l9-0.7 0.3 0.3 0.2 3.4h0.1q2-2 2.9-2.5 2-1.4 4.6-1.4 6.1 0 6.1 7.4v11.2q0 1.4 1.2 1.9 0.6 0.3 2.1 0.4zm23.1-5.4q-1.3 2.6-3.9 4.3-2.7 1.6-5.8 1.6-5.4 0-8.4-3.4-2.8-3.1-2.8-8.2 0-4.7 2.8-8 3.1-3.6 7.9-3.6 4.9 0 7.4 2.9 2.2 2.4 2.2 6.6v1.6h-14q0 4.1 1.9 6.4 1.8 2.4 5.2 2.4 3.7 0 6-4.1zm-6.9-8.3q0-6.8-3.5-6.8-1.9 0-3 1.7-1.1 1.8-1.2 5.2zm44.3 5q0 4.1-3.1 6.8-3.1 2.6-7.9 2.6-4.4 0-8.4-2.3l-1 2.1h-1.8l-0.3-11.6h1.8q1.4 3.8 3.5 6.3 2.6 3.1 5.5 3.1 2.4 0 3.9-1.4 1.4-1.5 1.4-3.7 0-3.3-4.6-5-2-0.7-5.4-2-5.4-2.4-5.4-8.3 0-3.7 2.7-6.2 2.9-2.7 7.5-2.7 4.1 0 7.2 2l0.9-1.7h1.9l0.2 10.9h-1.8q-1.5-4.1-3.1-6.2-2-2.6-4.7-2.6-1.9 0-3.2 1.4-1.3 1.3-1.3 3.3 0 1.8 1 2.9 1.1 1.2 3.5 2.1 1.9 0.7 5.3 2 2.8 1.2 4.1 2.9 1.6 2 1.6 5.3zm23.8 3.3q-1.3 2.7-3.9 4.3-2.7 1.7-5.8 1.7-5.4 0-8.4-3.4-2.8-3.1-2.8-8.2 0-4.7 2.8-8 3.1-3.6 7.9-3.6 4.9 0 7.4 2.9 2.2 2.4 2.2 6.6v1.5h-14q0 4.2 1.9 6.5 1.8 2.4 5.2 2.4 3.7 0 6-4.1zm-6.9-8.3q0-6.8-3.5-6.8-1.9 0-3 1.7-1.1 1.8-1.2 5.2zm28.4-4.5q0 1.8-1 2.9-0.9 1.2-2.3 1.2-3.3 0-3.3-2.8 0-0.6 0.4-2.2-2.3 0-4 2.7v12.1q0 1.5 1.2 2.1 0.7 0.4 3.2 0.5v1.8h-13.7v-1.8q0.8 0 2.1-0.2 1.3-0.4 1.3-2v-13.2q0-1.5-1.3-2.3-0.7-0.5-2.3-0.6v-1.7l9-0.7 0.3 0.3v3.4h0.3q2.8-3.7 6.1-3.7 1.8 0 2.9 1.1 1.1 1.1 1.1 3.1zm23.8-2.1q-2.6 0.6-3.4 2.4-1.6 4-5.1 13-1 2.4-1.7 5.1h-3.2q-2.7-7.2-7.1-18.3-0.6-1.6-3.3-2.1v-1.8h12v1.9q-2.6 0.1-2.6 0.7 0 0.2 0.2 1 0.3 0.9 4.3 11.1h0.1q1.7-4.1 4-10.2 0.2-0.6 0.2-1.3 0-1-3.1-1.4v-1.8h8.7zm10.4-8.8q0 3.2-3.7 3.2-1.6 0-2.6-0.9-1-0.8-1-2.1 0-1.3 1-2.2 1-0.8 2.6-0.8 3.7 0 3.7 2.8zm3 29.2h-12.6v-1.8q0.8 0 2.2-0.2 1.2-0.5 1.2-2v-13q0-1.6-1.2-2.4-0.9-0.6-2.9-0.7v-1.7l9.7-0.7 0.3 0.3v17.9q0 2.3 3.3 2.5zm21.8-5.8q-1.2 2.8-3.4 4.4-2.4 1.9-5.3 1.9-5.1 0-8-3.4-2.7-3.1-2.7-8.3 0-4.7 2.9-8 3.2-3.5 8.1-3.5 3.7 0 5.7 1.6 2 1.6 2 4.1 0 3.5-3.4 3.5-1.2 0-2.2-0.7-1.2-0.8-1.2-2.2 0-1 0.4-1.9 0.3-0.8 0.3-1-0.2-1.2-1.8-1.2-1.9 0-3 1.9-1.4 2.4-1.4 7.2 0 3.8 1.7 6.2 1.6 2.4 4 2.4 2.1 0 3.5-1.2 1.1-0.9 2.3-3.1zm22.5 0.2q-1.4 2.7-4 4.4-2.6 1.6-5.8 1.6-5.4 0-8.4-3.4-2.8-3.1-2.8-8.2 0-4.7 2.9-8 3-3.6 7.9-3.6 4.9 0 7.3 2.9 2.2 2.4 2.2 6.6v1.6h-13.9q0 4.1 1.8 6.4 1.9 2.4 5.3 2.4 3.7 0 6-4.1zm-7-8.3q0-6.8-3.5-6.8-1.9 0-2.9 1.7-1.2 1.8-1.2 5.2z"/><path fill-rule="evenodd" class="a" d="m44.3 203h-16.6v-2q1.5-0.1 3.6-0.5 1.4-0.8 1.4-2.4v-23.5h-0.4l-9.8 27.9h-2.4q-0.2-0.7-2.1-6.5l-7.1-21.9h-0.5v19.1q0 5 1.5 6.4 0.5 0.4 2.1 0.9 1.3 0.4 2 0.5v2h-13.7v-2q1.2-0.1 1.9-0.3 1.5-0.3 2.1-0.8 1.4-1.1 1.4-6.4v-15.4q0-2.8-1.3-4-1.1-0.9-3.9-1v-2h14.3l6.9 21 5.8-17.1q0.8-2.4 1-3.9h13.7v2q-2.2 0.1-3.2 0.4-1.3 0.6-1.3 2.3v22.3q0 1.6 1.3 2.3 0.9 0.4 3.3 0.6zm27.3-6.7q-0.2 7.3-6.2 7.3-2.1 0-3.3-0.9-0.8-0.7-1.7-2.4-2.9 3.3-7.4 3.3-2.5 0-4.2-1.6-1.7-1.6-1.7-4.1 0-2.9 1.5-4.5 1-1.2 3.2-2.1 0.9-0.3 4.6-1.6 3-1 4-1.6v-2.1q0-1.7-0.7-2.9-0.9-1.6-2.7-1.6-1.6 0-2.6 0.9 0 0 0.4 1.1 0.2 0.8 0.2 1.6 0 1.1-0.7 1.9-0.9 1-2.7 1-3.4 0-3.4-3.4 0-2.2 3-3.8 2.9-1.6 6.1-1.6 4.6 0 6.6 1.3 2.7 1.7 2.7 6.3 0 2.6-0.1 6.7-0.2 4.1-0.2 4.5 0 2.2 1.7 2.2 1.5 0 1.6-3.9zm-11.1-6q-3.7 1.5-4.6 2.1-2.1 1.6-2.1 4.1 0 3.6 2.9 3.6 2.3 0 3.6-1.9zm39.6 12.8h-12.5v-1.9q1.4 0 1.7-0.2 1.1-0.5 1.1-2.1v-11.1q0-2.4-1-3.7-0.9-1.1-2.2-1.1-1.9 0-3.4 1.2-1.1 1-1.6 2.1v12.4q0 2.3 2.9 2.5v1.9h-12.6v-1.9q1.8 0 2.3-0.2 1.3-0.5 1.3-2.1v-13.8q0-1.6-1.3-2.4-0.8-0.6-2.5-0.7v-1.8l9.4-0.7 0.3 0.3 0.2 3.6h0.1q2.1-2.1 3.1-2.7 2.1-1.4 4.8-1.4 6.4 0 6.4 7.7v11.8q0 1.4 1.3 2 0.6 0.3 2.2 0.4zm19-7.2q-0.4 7.7-7 7.7-6.7 0-6.7-6.7v-13.9h-4.4v-2.7h4.6v-6.6h5.9v6.6h6.4v2.7h-6.4v13.2q0 2.2 0.6 3.1 0.6 0.9 2.3 0.9 2.3 0 2.4-4.3zm23.7 1.5q-1.4 2.7-4.2 4.5-2.7 1.7-6 1.7-5.7 0-8.8-3.5-3-3.4-3-8.7 0-4.9 3-8.4 3.2-3.7 8.3-3.7 5.2 0 7.7 3 2.3 2.6 2.3 6.9v1.7h-14.6q0 4.3 1.9 6.8 2 2.4 5.5 2.4 3.9 0 6.3-4.2zm-7.2-8.8q0-7.1-3.7-7.1-2 0-3.1 1.8-1.2 1.9-1.3 5.5zm20.2-16.2q0 3.3-3.9 3.3-1.8 0-2.8-0.8-1.1-0.9-1.1-2.3 0-1.4 1.1-2.3 1-0.8 2.8-0.8 3.9 0 3.9 2.9zm-0.3 28.2q0 5.8-3.3 8.8-2.7 2.3-6.9 2.3-5 0-5-3.4 0-1.3 0.7-2.2 0.8-0.9 2.1-0.9 3.1 0 3.1 2.9 0 0.8-0.4 2 3.4 0 3.4-7.4v-17.2q0-1.5-1.2-2.5-0.4-0.2-1.8-0.6-1.4-0.3-2.1-0.4v-1.8l11.1-0.8 0.3 0.4z"/><path class="b" d="m330.3 122.5q0 14.5-10.9 23.9-10.8 9.3-28 9.3-15.5 0-29.6-8.1l-3.5 7.4h-6.5l-1.1-41.2h6.6q4.8 13.5 12.2 22.3 9.1 11.1 19.6 11.1 8.6 0 13.6-5.1 5-5.1 5-13.1 0-11.6-16.3-17.6-7.1-2.4-19-7.1-19-8.5-19-29.5 0-12.9 9.5-21.9 10.2-9.6 26.3-9.6 14.6 0 25.7 7.1l3.1-6.1h6.7l0.7 39h-6.4q-5.2-14.8-10.7-22.1-7.2-9.3-16.7-9.3-6.9 0-11.5 4.9-4.7 4.8-4.7 11.8 0 6.4 3.8 10.4 3.8 4 12.4 7.2 6.8 2.4 18.8 7.1 9.6 4.3 14.3 10.3 5.6 7.3 5.6 18.9z"/><path class="b" d="m230.9 61.6v4.5 4.2h-2.5c-1.3 0-2.5 0.1-2.5 0.2 0 0.1 0.7 1.9 1.5 4 1.4 3.5 1.4 3.9 0.8 5.5-1.4 3.3-14.4 16.2-19.1 19-6.2 3.6-9.3 8.7-9.3 15.6-0.1 3.3 0.1 4.2 1.6 7.1 1.8 3.7 4.4 6.2 8.4 7.9 1.9 0.9 3.4 1.1 7.1 1.1 4.2 0 5.1-0.1 7.3-1.3 3.4-1.7 4.7-12 6.7-15.1 1.2-1.8 2.9-4 3.8-4.9 2.6-2.5 7.3-5.5 9.3-5.8 6.6-1.3 8.2 3.8 2.9 9.4-3.2 3.4-4 5.6-4.5 12.5-0.9 13.9-0.2 17.5-11.8 23.7-2.5 1.3-9.6 3.7-19.2 3.6-9.6 0-10.3 0.2-19.1-3.8-8.7-3.9-12.5-10.2-15.7-16.7-10.6-22 0.6-48 23.8-55.1 4.2-1.3 6.6-3.2 6.6-5.5 0-1.4-0.1-1.4-2.8-1.4h-2.7v-4.2-4.5z"/><path class="b" d="m203.9 4.5h24.5c0 0 16.8 43.8 16.8 43.9 0 0.2-14.2 14.9-14.2 14.9h-29.7l-14.2-14.9z"/><path class="c" d="m198 33.1l9.3-23.1h17.6l9.5 23.1"/><path class="d" d="m224.1 58.5h1.8l10.3-11.1-3-7.7-17.5 18.8h-10.5l25-27.1-3-7.5-27 29.3-5.3-5.8 27.5-29.3"/><path class="b" d="m182.3 153.6h-51.5v-7q4.7-0.3 11.2-1.6 4.4-2.8 4.4-8.2v-80.5h-1.2l-30.4 95.5h-7.6q-0.6-2.4-6.5-22.3l-22-74.8h-1.4v65.3q0 17.2 4.5 21.8 1.6 1.6 6.4 3.2 4.3 1.5 6.4 1.6v7h-42.6v-7q3.6-0.4 5.9-1 4.5-1 6.5-2.8 4.4-3.7 4.4-22v-52.7q0-9.5-4.1-13.4-3.5-3.4-12-3.7v-6.9h44.4l21.4 72 18-58.5q2.6-8.2 3-13.5h42.7v6.9q-7 0.4-9.9 1.6-4.1 1.8-4.1 7.8v76.4q0 5.6 4.1 7.9 2.5 1.5 10 1.9z"/></g></svg>