<svg version="1.2" xmlns="http://www.w3.org/2000/svg" viewBox="0 0 443 246" width="443" height="246"><defs><clipPath clipPathUnits="userSpaceOnUse" id="cp1"><path d="m-37-122h540v540h-540z"/></clipPath><filter x="-50%" y="-50%" width="200%" height="200%" id="f1" ><feDropShadow dx="-1.8369701987210297e-16" dy="3" stdDeviation="2.916666666666667" flood-color="#ffff00" flood-opacity="1"/></filter><filter x="-50%" y="-50%" width="200%" height="200%" id="f2" ><feDropShadow dx="0.7071067811865475" dy="0.7071067811865476" stdDeviation="0.8333333333333334" flood-color="#ffff00" flood-opacity="1"/></filter><filter x="-50%" y="-50%" width="200%" height="200%" id="f3" ><feDropShadow dx="0.7071067811865475" dy="0.7071067811865476" stdDeviation="0.8333333333333334" flood-color="#ffff00" flood-opacity="1"/></filter><filter x="-50%" y="-50%" width="200%" height="200%" id="f4" ><feDropShadow dx="0.7071067811865475" dy="0.7071067811865476" stdDeviation="0.8333333333333334" flood-color="#ffff00" flood-opacity="1"/></filter></defs><style>.a{stroke:#ff0;stroke-width:5}.b{filter:url(#f1);fill:none;stroke:#ff0;stroke-width:3}.c{filter:url(#f2);fill:none;stroke:#ff0;stroke-linecap:square;stroke-width:3}.d{filter:url(#f3);fill:#ff0}.e{filter:url(#f4);fill:#ff0}.f{stroke:#ff3;stroke-width:5}</style><g clip-path="url(#cp1)"><path class="a" d="m438.1 189q0 22.8-17 37.4-17.1 14.7-43.9 14.7-24.3 0-46.4-12.7l-5.5 11.6h-10.2l-1.6-64.6h10.3q7.5 21.1 19.1 35 14.3 17.3 30.7 17.3 13.4 0 21.2-8 7.9-7.9 7.9-20.4 0-18.2-25.5-27.6-11.2-3.8-29.8-11.1-29.8-13.4-29.8-46.2 0-20.2 15-34.3 15.9-15 41.2-15 22.7 0 40.2 11.1l4.8-9.5h10.5l1.1 60.9h-10q-8.2-23.2-16.8-34.5-11.2-14.6-26.2-14.6-10.7 0-17.9 7.6-7.3 7.6-7.3 18.6 0 10 5.9 16.2 5.9 6.3 19.3 11.3 10.7 3.8 29.6 11.1 15 6.8 22.3 16.2 8.8 11.3 8.8 29.5z"/><path class="a" d="m282.4 93.7v7 6.6h-3.9c-2.1 0-3.9 0.1-3.9 0.4 0 0.1 1.1 2.9 2.4 6.2 2.1 5.5 2.2 6.1 1.2 8.6-2.2 5.1-22.5 25.4-29.9 29.7-9.7 5.7-14.5 13.7-14.6 24.5 0 5.1 0.3 6.5 2.5 11.1 2.9 5.8 6.9 9.6 13.1 12.4 3.1 1.4 5.4 1.8 11.3 1.8 6.5 0 7.9-0.3 11.4-2.1 5.4-2.8 7.3-18.9 10.5-23.6 1.8-2.8 4.4-6.3 5.9-7.7 4-4 11.4-8.6 14.5-9.2 10.4-1.9 12.9 5.9 4.5 14.8-5 5.3-6.2 8.8-6.9 19.6-1.5 21.7-0.3 27.3-18.5 37-3.9 2-15.1 5.8-30.1 5.7-15 0-16.2 0.2-29.9-5.9-13.6-6.2-19.5-16-24.5-26.2-16.7-34.5 0.8-75.2 37.2-86.2 6.6-2 10.3-5.1 10.3-8.7 0-2.2-0.1-2.2-4.3-2.2h-4.3v-6.6-7z"/><path class="a" d="m240.2 4.3h38.4c0 0 26.3 68.5 26.2 68.8 0 0.2-22.2 23.2-22.2 23.2h-46.5l-22.2-23.2z"/><path class="b" d="m228.1 50.1l16.1-39.7h30.2l16.4 39.7"/><path class="c" d="m271.7 88.9h2.9l16.2-17.5-4.7-11.9-27.4 29.4h-16.5l39.1-42.5-4.7-11.7-42.3 45.9-8.3-9.2 43.1-45.8"/><path class="d" d="m270.9 88.2h0.4v1.5h-1.8z"/><path class="e" d="m271.4 24.3l-1.3 1.3-1.1-1 0.3-0.3z"/><path class="f" d="m204.4 236.9h-77.3v-10.3q7-0.5 16.8-2.5 6.6-4.2 6.6-12.3v-120.7h-1.8l-45.6 143.2h-11.4q-0.8-3.5-9.6-33.4l-33-112.2h-2.2v97.9q0 25.8 6.8 32.7 2.4 2.4 9.6 4.8 6.4 2.2 9.6 2.5v10.3h-63.9v-10.3q5.4-0.7 8.8-1.6 6.8-1.5 9.8-4.2 6.7-5.5 6.7-32.9v-79.1q0-14.1-6.3-20.1-5.2-5.1-18-5.5v-10.4h66.7l32 108 27-87.7q3.8-12.4 4.4-20.3h64.1v10.4q-10.4 0.6-14.9 2.4-6.2 2.7-6.2 11.7v114.5q0 8.4 6.2 11.9 3.9 2.2 15.1 2.9z"/></g></svg>